<svg xmlns="http://www.w3.org/2000/svg">

  <symbol id="angular" viewBox="0 0 24 24">
    <path fill-rule="evenodd" clip-rule="evenodd" d="M14.575,0.18c0.946,0.436,1.775,0.818,2.604,1.2 c1.836,0.847,3.666,1.709,5.513,2.533c0.388,0.173,0.521,0.38,0.487,0.792c-0.118,1.529-0.212,3.06-0.31,4.592 c-0.069,1.081-0.126,2.161-0.19,3.242c-0.087,1.41-0.176,2.818-0.265,4.227c-0.001,0.019-0.031,0.035-0.086,0.095 C19.755,11.327,17.192,5.81,14.575,0.18z"/>
    <path fill-rule="evenodd" clip-rule="evenodd" d="M9.35,0.327c-2.556,5.5-5.112,11-7.667,16.499 c-0.025-0.004-0.051-0.009-0.076-0.013c-0.061-0.809-0.126-1.619-0.18-2.428c-0.137-2.093-0.27-4.186-0.4-6.278 c-0.079-1.246-0.159-2.49-0.21-3.736C0.812,4.258,0.987,4.089,1.12,4.029C3.36,2.98,5.607,1.943,7.853,0.905 c0.478-0.221,0.955-0.44,1.433-0.662C9.307,0.271,9.328,0.299,9.35,0.327z"/>
    <path fill-rule="evenodd" clip-rule="evenodd" d="M6.134,20.607c0.382-0.922,0.746-1.816,1.131-2.703 c0.039-0.09,0.197-0.182,0.3-0.182c2.95-0.009,5.899-0.01,8.849,0.004c0.118,0,0.293,0.131,0.344,0.245 c0.35,0.786,0.665,1.586,1.011,2.373c0.097,0.219,0.038,0.313-0.149,0.419c-1.762,0.998-3.521,1.999-5.276,3.009 c-0.226,0.128-0.407,0.157-0.644,0.021C9.862,22.732,8.021,21.686,6.134,20.607z"/>
    <path fill-rule="evenodd" clip-rule="evenodd" d="M12.054,6.554c0.346,0.843,0.669,1.636,0.995,2.427 c0.627,1.528,1.259,3.055,1.885,4.583c0.158,0.388,0.115,0.45-0.308,0.45c-1.756,0.003-3.514,0-5.27,0.003 c-0.271,0-0.432-0.027-0.289-0.372c0.955-2.308,1.898-4.621,2.846-6.933C11.929,6.678,11.966,6.652,12.054,6.554z"/>
  </symbol>

  <symbol id="react" viewBox="0 0 24 24">
    <path fill-rule="evenodd" clip-rule="evenodd" d="M12.017,19.878c-0.308,0.26-0.609,0.526-0.924,0.775 c-0.902,0.717-1.858,1.34-2.985,1.646c-0.571,0.155-1.149,0.197-1.712-0.031c-0.637-0.258-1-0.771-1.233-1.391 c-0.314-0.835-0.368-1.709-0.303-2.584c0.049-0.664,0.168-1.322,0.258-1.982c0.011-0.079,0.024-0.161,0.048-0.236 c0.037-0.118-0.014-0.164-0.122-0.196c-0.766-0.234-1.506-0.534-2.216-0.903c-0.75-0.391-1.447-0.855-1.987-1.52 c-0.333-0.41-0.563-0.869-0.577-1.412c-0.015-0.603,0.239-1.104,0.614-1.553c0.533-0.638,1.213-1.084,1.94-1.469 c0.689-0.363,1.406-0.66,2.152-0.878C5.143,8.092,5.17,8.021,5.133,7.848C4.892,6.719,4.734,5.582,4.851,4.423 c0.064-0.647,0.203-1.271,0.545-1.835C5.863,1.819,6.571,1.53,7.435,1.597C8.322,1.666,9.106,2.039,9.857,2.49 c0.703,0.423,1.345,0.927,1.953,1.475c0.18,0.163,0.182,0.162,0.356,0.002c0.798-0.729,1.655-1.377,2.625-1.858 c0.644-0.319,1.313-0.557,2.05-0.535c0.877,0.025,1.485,0.459,1.861,1.235c0.346,0.709,0.44,1.47,0.455,2.247 c0.016,0.925-0.111,1.834-0.299,2.738c-0.055,0.269-0.058,0.27,0.206,0.353c1.053,0.333,2.06,0.764,2.977,1.387 c0.551,0.374,1.048,0.806,1.389,1.394c0.452,0.785,0.396,1.548-0.097,2.292c-0.406,0.612-0.974,1.053-1.591,1.434 c-0.851,0.526-1.768,0.912-2.719,1.208c-0.158,0.048-0.184,0.113-0.15,0.271c0.249,1.169,0.415,2.348,0.271,3.545 c-0.086,0.727-0.257,1.429-0.74,2.011c-0.386,0.469-0.892,0.691-1.492,0.711c-0.752,0.026-1.438-0.216-2.101-0.542 c-0.988-0.488-1.856-1.146-2.668-1.885c-0.026-0.022-0.051-0.046-0.078-0.067C12.052,19.894,12.035,19.889,12.017,19.878z M11.984,15.833c0.635-0.027,1.29-0.062,1.945-0.083c0.167-0.005,0.273-0.07,0.364-0.206c0.742-1.106,1.405-2.253,1.969-3.458 c0.024-0.054,0.027-0.138,0.002-0.191c-0.577-1.223-1.254-2.392-2.03-3.5c-0.048-0.066-0.154-0.122-0.236-0.129 c-1.327-0.113-2.654-0.11-3.981-0.007C9.891,8.268,9.805,8.308,9.734,8.415c-0.754,1.117-1.431,2.277-1.999,3.499 c-0.024,0.054-0.024,0.139,0.001,0.192c0.577,1.225,1.252,2.392,2.026,3.503c0.067,0.097,0.142,0.136,0.255,0.14 C10.666,15.773,11.314,15.805,11.984,15.833z M5.887,18.731c0.008,0.609,0.054,1.226,0.273,1.818c0.233,0.629,0.681,0.897,1.344,0.8 c0.432-0.063,0.834-0.209,1.222-0.403c0.892-0.445,1.671-1.051,2.411-1.712c0.089-0.08,0.096-0.13,0.018-0.223 c-0.604-0.715-1.202-1.436-1.807-2.15c-0.056-0.066-0.151-0.125-0.236-0.139c-0.921-0.168-1.843-0.323-2.765-0.488 c-0.11-0.019-0.141,0.014-0.163,0.11C6.011,17.127,5.905,17.917,5.887,18.731z M22.694,11.939c-0.031-0.098-0.063-0.259-0.134-0.399 c-0.232-0.454-0.608-0.775-1.018-1.063c-0.863-0.609-1.825-1.011-2.826-1.337c-0.142-0.046-0.181-0.007-0.228,0.124 c-0.314,0.87-0.644,1.734-0.958,2.604c-0.029,0.075-0.021,0.179,0.008,0.257c0.318,0.868,0.649,1.733,0.964,2.603 c0.052,0.141,0.107,0.165,0.236,0.113c0.574-0.232,1.162-0.44,1.723-0.699c0.672-0.309,1.297-0.698,1.797-1.259 C22.484,12.629,22.663,12.352,22.694,11.939z M17.786,7.769c0.242-1.099,0.395-2.172,0.287-3.267 c-0.045-0.459-0.135-0.908-0.361-1.321c-0.189-0.347-0.471-0.535-0.871-0.549c-0.528-0.019-1.012,0.146-1.477,0.367 c-0.937,0.447-1.747,1.079-2.516,1.768c-0.091,0.083-0.066,0.131,0.001,0.21c0.605,0.721,1.206,1.447,1.814,2.167 c0.053,0.062,0.146,0.11,0.226,0.124c0.759,0.129,1.521,0.247,2.279,0.373C17.373,7.674,17.57,7.724,17.786,7.769z M1.308,12.007 c0.007,0.047,0.014,0.117,0.031,0.182c0.111,0.435,0.404,0.748,0.731,1.022c0.956,0.802,2.082,1.271,3.254,1.653 c0.102,0.033,0.138-0.014,0.172-0.105c0.323-0.884,0.652-1.768,0.975-2.653c0.022-0.062,0.022-0.146-0.001-0.208 c-0.324-0.879-0.657-1.754-0.977-2.634C5.442,9.125,5.397,9.102,5.26,9.147c-0.716,0.237-1.419,0.504-2.078,0.875 c-0.549,0.308-1.077,0.645-1.488,1.132C1.491,11.395,1.329,11.657,1.308,12.007z M6.197,7.777C6.29,7.76,6.345,7.749,6.401,7.739 C7.267,7.586,8.132,7.426,9,7.288c0.182-0.029,0.294-0.095,0.408-0.234c0.558-0.687,1.125-1.366,1.699-2.039 c0.096-0.113,0.119-0.173-0.008-0.269c-0.573-0.433-1.127-0.891-1.716-1.3C8.857,3.079,8.275,2.813,7.639,2.687 C6.827,2.525,6.397,2.744,6.126,3.524C6.001,3.883,5.935,4.271,5.898,4.65C5.832,5.345,5.888,6.041,5.996,6.73 C6.05,7.075,6.127,7.416,6.197,7.777z M17.8,16.217c-0.057,0.005-0.09,0.005-0.123,0.011c-0.916,0.16-1.833,0.324-2.752,0.477 c-0.132,0.021-0.214,0.079-0.294,0.177c-0.586,0.71-1.172,1.418-1.765,2.121c-0.08,0.095-0.077,0.14,0.013,0.22 c0.59,0.524,1.207,1.015,1.887,1.417c0.518,0.306,1.053,0.566,1.652,0.673c0.731,0.131,1.124-0.063,1.406-0.708 c0.199-0.455,0.292-0.939,0.281-1.43c-0.01-0.646-0.052-1.297-0.111-1.941C17.965,16.892,17.868,16.558,17.8,16.217z M10.691,7.088 c0.013,0.016,0.025,0.031,0.038,0.046c0.845,0,1.69,0,2.535,0c0.011-0.013,0.021-0.026,0.031-0.039 c-0.428-0.493-0.856-0.986-1.311-1.507C11.535,6.11,11.113,6.6,10.691,7.088z M10.733,16.857c-0.01,0.016-0.02,0.03-0.03,0.046 c0.427,0.489,0.854,0.979,1.308,1.498c0.453-0.526,0.875-1.018,1.327-1.544C12.425,16.857,11.579,16.857,10.733,16.857z M7.088,10.662c0.017-0.001,0.035-0.003,0.053-0.004c0.42-0.732,0.84-1.463,1.29-2.247C7.746,8.544,7.109,8.668,6.444,8.798 C6.669,9.45,6.878,10.056,7.088,10.662z M16.904,13.32c-0.017,0.001-0.031,0.001-0.048,0.003c-0.423,0.736-0.845,1.472-1.297,2.258 c0.681-0.135,1.317-0.263,1.988-0.396C17.323,14.532,17.114,13.926,16.904,13.32z M15.574,8.435c0.44,0.76,0.863,1.489,1.313,2.265 c0.222-0.656,0.43-1.265,0.646-1.903C16.99,8.689,16.495,8.59,16,8.495C15.87,8.47,15.738,8.458,15.574,8.435z M7.138,13.347 c-0.018-0.001-0.036-0.003-0.054-0.005c-0.19,0.576-0.381,1.153-0.571,1.729c-0.036,0.108,0.034,0.129,0.113,0.146 c0.438,0.09,0.876,0.184,1.314,0.27c0.152,0.03,0.308,0.042,0.482,0.065C7.983,14.798,7.561,14.072,7.138,13.347z"/>
    <path fill-rule="evenodd" clip-rule="evenodd" d="M14.175,11.998c-0.004,1.214-0.975,2.175-2.192,2.173 c-1.202-0.005-2.17-0.977-2.17-2.18c-0.001-1.2,0.984-2.177,2.195-2.174C13.204,9.818,14.177,10.797,14.175,11.998z"/>
  </symbol>

  <symbol id="brand-short-light" viewBox="0 0 125.964 50">
    <path fill="#169590" d="M84.053,3.363V6.63h-7.345v9.155h-3.642V6.63h-7.344V3.363H84.053z"/>
    <path fill="#169590" d="M104.785,3.363V6.36H90.533v1.777h12.745v2.908H90.533v1.741h14.252v2.999H87.031V3.363H104.785z"/>
    <path fill="#169590" d="M125.46,15.84h-10.641c-4.45,0-7.055-2.28-7.055-6.248V9.574c0-3.984,2.603-6.265,7.055-6.265h10.641v3.177 h-10.641c-2.278,0-3.554,1.059-3.554,3.087v0.018c0,2.011,1.292,3.069,3.554,3.069h10.641V15.84z"/>
    <path fill="#169590" d="M83.765,31.187h-3.931l-1.133-2.188h-7.625l-1.134,2.188h-3.932l7.136-12.421h3.483L83.765,31.187z M74.887,21.619l-2.348,4.543h4.695L74.887,21.619z"/>
    <path fill="#169590" d="M98.826,18.765c4.503,0,5.958,1.992,5.958,4.667v0.019c0,2.676-1.455,4.668-5.958,4.668h-8.293v3.069h-3.502 V18.767h11.795V18.765z M101.303,23.432c0-0.988-0.591-1.489-2.477-1.489h-8.293v2.979h8.293c1.886,0,2.477-0.484,2.477-1.471 V23.432z"/>
    <path fill="#169590" d="M119.527,18.765c4.508,0,5.962,1.992,5.962,4.667v0.019c0,2.676-1.454,4.668-5.962,4.668h-8.291v3.069 h-3.502V18.767h11.793V18.765z M122.007,23.432c0-0.988-0.593-1.489-2.479-1.489h-8.291v2.979h8.291 c1.887,0,2.479-0.484,2.479-1.471V23.432z"/>
    <path fill="#169590" d="M95.907,39.831l4.086-5.528h4.792l-7.063,8.258v4.164h-3.625v-4.164l-7.064-8.258h4.774L95.907,39.831z"/>
    <path fill="#169590" d="M66.021,43.886H79.11c0.988,0,1.453-0.249,1.453-0.844c0-0.573-0.411-0.789-1.364-0.859l-9.054-0.431 c-3.143-0.216-4.132-1.884-4.132-3.662c0-2.064,1.277-3.787,4.76-3.787h13.004l-0.033,2.944H70.595c-0.88,0-1.383,0.232-1.383,0.771 c0,0.485,0.323,0.754,1.4,0.845l8.947,0.378c3.267,0.212,4.218,1.989,4.201,3.786c0,2.028-1.257,3.805-4.669,3.805H66.006 L66.021,43.886z"/>
    <path fill="#169590" d="M107.745,43.886h13.087c0.988,0,1.454-0.249,1.454-0.844c0-0.573-0.413-0.789-1.365-0.859l-9.053-0.431 c-3.143-0.216-4.131-1.884-4.131-3.662c0-2.064,1.276-3.787,4.759-3.787H125.5l-0.033,2.944h-13.149 c-0.879,0-1.383,0.232-1.383,0.771c0,0.485,0.323,0.754,1.399,0.845l8.949,0.378c3.267,0.212,4.22,1.989,4.201,3.786 c0,2.028-1.258,3.805-4.67,3.805H107.73L107.745,43.886z"/>
    <path fill="#0C171E" d="M6.439,30.393H0.67c1.73,7.912,7.223,14.418,14.509,17.547v-6.265C10.987,39.193,7.814,35.174,6.439,30.393z "/>
    <path fill="#0C171E" d="M34.804,41.675v6.265c7.287-3.129,12.778-9.635,14.508-17.547h-5.769 C42.171,35.174,38.997,39.193,34.804,41.675z"/>
    <path fill="#0C171E" d="M24.991,5.748c8.833,0,16.279,5.932,18.573,14.03h5.764C46.908,8.56,36.932,0.152,24.991,0.152 c-11.94,0-21.917,8.407-24.335,19.625H6.42C8.714,11.68,16.16,5.748,24.991,5.748z"/>
    <path fill="#169590" d="M49.79,22.831H27.244v27.017c1.547-0.14,3.054-0.418,4.506-0.828V27.338h18.033 c0.068-0.754,0.105-1.518,0.105-2.288C49.889,24.302,49.854,23.563,49.79,22.831z"/>
    <path fill="#169590" d="M0.193,22.831c-0.064,0.732-0.099,1.471-0.099,2.219c0,0.771,0.037,1.534,0.105,2.288h18.033V49.02 c1.453,0.41,2.959,0.688,4.506,0.828V22.831H0.193z"/>
    <path fill="#169590" d="M10.821,19.778h28.378c0.057-0.732,0.086-1.472,0.086-2.219c0-0.771-0.032-1.534-0.092-2.288H10.826 c-0.06,0.754-0.092,1.517-0.092,2.288C10.735,18.306,10.765,19.046,10.821,19.778z"/>
  </symbol>

  <symbol id="brand-short-dark" viewBox="0 0 125.964 50">
    <path fill="#169590" d="M84.054,3.363V6.63H76.71v9.156h-3.643V6.63h-7.341V3.363H84.054z"/>
    <path fill="#169590" d="M104.787,3.363V6.36H90.534v1.777h12.745v2.908H90.534v1.741h14.253v2.998H87.032V3.363H104.787z"/>
    <path fill="#169590" d="M125.463,15.84h-10.642c-4.45,0-7.055-2.28-7.055-6.249V9.575c0-3.985,2.604-6.265,7.055-6.265h10.642v3.177 h-10.642c-2.279,0-3.554,1.058-3.554,3.088v0.017c0,2.011,1.292,3.07,3.554,3.07h10.642V15.84z"/>
    <path fill="#169590" d="M83.767,31.188h-3.931l-1.134-2.189h-7.625l-1.133,2.189h-3.93l7.134-12.422h3.482L83.767,31.188z M74.889,21.619l-2.348,4.543h4.695L74.889,21.619z"/>
    <path fill="#169590" d="M98.828,18.765c4.504,0,5.958,1.992,5.958,4.667v0.019c0,2.675-1.454,4.667-5.958,4.667h-8.294v3.07h-3.502 V18.766L98.828,18.765L98.828,18.765z M101.305,23.432c0-0.988-0.591-1.489-2.477-1.489h-8.294v2.978h8.294 c1.886,0,2.477-0.484,2.477-1.47V23.432z"/>
    <path fill="#169590" d="M119.529,18.765c4.508,0,5.962,1.992,5.962,4.667v0.019c0,2.675-1.454,4.667-5.962,4.667h-8.291v3.07h-3.502 V18.766L119.529,18.765L119.529,18.765z M122.009,23.432c0-0.988-0.593-1.489-2.479-1.489h-8.291v2.978h8.291 c1.887,0,2.479-0.484,2.479-1.47V23.432z"/>
    <path fill="#169590" d="M95.909,39.831l4.086-5.528h4.792l-7.064,8.259v4.164h-3.625v-4.164l-7.064-8.259h4.775L95.909,39.831z"/>
    <path fill="#169590" d="M66.024,43.886h13.087c0.988,0,1.454-0.249,1.454-0.843c0-0.575-0.412-0.79-1.365-0.86l-9.054-0.431 c-3.142-0.215-4.13-1.885-4.13-3.661c0-2.065,1.276-3.788,4.758-3.788h13.005l-0.034,2.944H70.596c-0.88,0-1.383,0.232-1.383,0.771 c0,0.485,0.324,0.754,1.4,0.845l8.948,0.377c3.266,0.213,4.218,1.99,4.201,3.788c0,2.027-1.257,3.805-4.669,3.805H66.009 L66.024,43.886z"/>
    <path fill="#169590" d="M107.747,43.886h13.086c0.988,0,1.454-0.249,1.454-0.843c0-0.575-0.412-0.79-1.364-0.86l-9.054-0.431 c-3.142-0.215-4.13-1.885-4.13-3.661c0-2.065,1.276-3.788,4.758-3.788h13.005l-0.034,2.944h-13.148c-0.88,0-1.383,0.232-1.383,0.771 c0,0.485,0.323,0.754,1.399,0.845l8.949,0.377c3.267,0.213,4.219,1.99,4.201,3.788c0,2.027-1.257,3.805-4.67,3.805h-13.084 L107.747,43.886z"/>
    <path fill="#169590" d="M6.439,30.393H0.67c1.73,7.912,7.223,14.418,14.509,17.547v-6.265C10.987,39.193,7.814,35.174,6.439,30.393z "/>
    <path fill="#169590" d="M34.804,41.675v6.265c7.287-3.129,12.778-9.635,14.508-17.547h-5.769 C42.171,35.174,38.997,39.193,34.804,41.675z"/>
    <path fill="#169590" d="M24.991,5.748c8.833,0,16.279,5.932,18.573,14.03h5.764C46.908,8.56,36.932,0.152,24.991,0.152 c-11.94,0-21.917,8.407-24.335,19.625H6.42C8.714,11.68,16.16,5.748,24.991,5.748z"/>
    <path fill="#FFFFFF" d="M49.79,22.831H27.244v27.017c1.547-0.14,3.054-0.418,4.506-0.828V27.338h18.033 c0.068-0.754,0.105-1.518,0.105-2.288C49.889,24.302,49.854,23.563,49.79,22.831z"/>
    <path fill="#FFFFFF" d="M0.193,22.831c-0.064,0.732-0.099,1.471-0.099,2.219c0,0.771,0.037,1.534,0.105,2.288h18.033V49.02 c1.453,0.41,2.959,0.688,4.506,0.828V22.831H0.193z"/>
    <path fill="#FFFFFF" d="M10.821,19.778h28.378c0.057-0.732,0.086-1.472,0.086-2.219c0-0.771-0.032-1.534-0.092-2.288H10.826 c-0.06,0.754-0.092,1.517-0.092,2.288C10.735,18.306,10.765,19.046,10.821,19.778z"/>
  </symbol>

  <symbol id="brand-dark" viewBox="0 0 351.531 50">
    <path fill="#169590" d="M6.736,30.486H0.968c1.729,7.912,7.222,14.418,14.508,17.547v-6.266 C11.284,39.287,8.111,35.268,6.736,30.486z"/>
    <path fill="#169590" d="M35.102,41.768v6.267c7.285-3.13,12.777-9.636,14.506-17.548H43.84 C42.467,35.27,39.293,39.287,35.102,41.768z"/>
    <path fill="#169590" d="M25.288,5.843c8.832,0,16.278,5.931,18.573,14.029h5.763C47.205,8.655,37.229,0.248,25.288,0.248 c-11.939,0-21.915,8.407-24.334,19.625h5.764C9.011,11.774,16.458,5.843,25.288,5.843z"/>
    <path fill="#FFFFFF" d="M50.086,22.926H27.539v27.014c1.549-0.14,3.055-0.418,4.508-0.826V27.432H50.08 c0.067-0.754,0.104-1.516,0.104-2.287C50.186,24.397,50.15,23.657,50.086,22.926z"/>
    <path fill="#FFFFFF" d="M0.491,22.926c-0.065,0.73-0.101,1.471-0.101,2.219c0,0.771,0.037,1.533,0.105,2.287H18.53v21.683 c1.453,0.407,2.96,0.688,4.506,0.825V22.926H0.491z"/>
    <path fill="#FFFFFF" d="M11.118,19.872h28.378c0.057-0.731,0.086-1.471,0.086-2.219c0-0.771-0.031-1.533-0.092-2.287H11.124 c-0.061,0.754-0.092,1.517-0.092,2.287C11.032,18.401,11.062,19.141,11.118,19.872z"/>
    <path fill="#9EA2A6" d="M83.135,34.923v1.346h-3.231v4.979H78.44v-4.979h-3.236v-1.346H83.135z"/>
    <path fill="#9EA2A6" d="M91.618,34.923v1.249h-5.982v1.312h5.414v1.225h-5.414v1.279h5.982v1.261h-7.395v-6.327h7.395V34.923z"/>
    <path fill="#9EA2A6" d="M100.287,36.69c-0.413-0.407-0.979-0.519-1.742-0.519h-2.534c-1.313,0-2.051,0.717-2.051,1.901v0.013 c0.004,1.206,0.746,1.91,2.051,1.91h2.534c0.786,0,1.335-0.131,1.742-0.522l0.84,1.035c-0.625,0.579-1.395,0.797-2.58,0.797h-2.533 c-2.202,0-3.481-1.217-3.481-3.216v-0.015c0-1.99,1.282-3.202,3.481-3.202h2.533c1.141,0,1.946,0.202,2.58,0.792L100.287,36.69z"/>
    <path fill="#9EA2A6" d="M109.241,37.445v-2.522h1.468v6.325h-1.468v-2.504h-5.608v2.504h-1.455v-6.325h1.455v2.522H109.241z"/>
    <path fill="#9EA2A6" d="M119.294,34.923h1.449v6.325h-1.365l-5.687-4.366v4.366h-1.436v-6.325h1.354l5.685,4.356V34.923 L119.294,34.923z"/>
    <path fill="#9EA2A6" d="M128.148,34.869c2.205,0,3.487,1.216,3.487,3.204v0.013c0,1.998-1.285,3.217-3.487,3.217h-2.755 c-2.204,0-3.484-1.219-3.484-3.217v-0.013c0-1.99,1.28-3.204,3.484-3.204H128.148z M128.148,39.996c1.365,0,2.055-0.725,2.055-1.91 v-0.013c0-1.177-0.689-1.901-2.055-1.901h-2.755c-1.361,0-2.057,0.725-2.057,1.901v0.013c0,1.186,0.695,1.91,2.057,1.91H128.148z"/>
    <path fill="#9EA2A6" d="M134.268,34.923v4.964h5.758v1.361h-7.214v-6.325H134.268z"/>
    <path fill="#9EA2A6" d="M146.894,34.869c2.204,0,3.484,1.216,3.484,3.204v0.013c0,1.998-1.282,3.217-3.484,3.217h-2.75 c-2.207,0-3.487-1.219-3.487-3.217v-0.013c0-1.99,1.28-3.204,3.487-3.204H146.894z M146.894,39.996c1.364,0,2.061-0.725,2.061-1.91 v-0.013c0-1.177-0.696-1.901-2.061-1.901h-2.75c-1.365,0-2.061,0.725-2.061,1.901v0.013c0,1.186,0.695,1.91,2.061,1.91H146.894z"/>
    <path fill="#9EA2A6" d="M159.177,36.69c-0.423-0.407-0.982-0.519-1.811-0.519h-2.653c-1.361,0-2.103,0.695-2.103,1.901v0.013 c0,1.193,0.741,1.91,2.066,1.91h2.531c0.861,0,1.541-0.177,1.741-0.725v-0.274h-2.241v-1.122h3.474v3.373h-0.858l-0.083-0.751 c-0.403,0.596-1.116,0.806-2.098,0.806h-2.518c-2.171,0-3.441-1.219-3.441-3.217v-0.013c0-1.99,1.28-3.204,3.529-3.204h2.653 c1.206,0,2.021,0.204,2.649,0.792L159.177,36.69z"/>
    <path fill="#9EA2A6" d="M165.176,37.896l2.742-2.974h1.833l-3.844,4.133v2.192h-1.451v-2.192l-3.839-4.133h1.827L165.176,37.896z"/>
    <path fill="#9EA2A6" d="M193.787,41.248h-1.571l-0.796-1.29h-4.822l-0.797,1.29h-1.573l4.056-6.325h1.446L193.787,41.248z M189.01,36.185l-1.683,2.584h3.353L189.01,36.185z"/>
    <path fill="#9EA2A6" d="M200.077,34.923c2.003,0,2.805,0.924,2.805,2.328v0.008c0,1.422-0.802,2.332-2.805,2.332h-3.879v1.657 h-1.413v-6.325H200.077z M201.452,37.251c0-0.675-0.392-1.021-1.375-1.021h-3.879v2.058h3.879c0.983,0,1.375-0.342,1.375-1.03 V37.251z"/>
    <path fill="#9EA2A6" d="M209.307,34.923c2.001,0,2.807,0.924,2.807,2.328v0.008c0,1.422-0.806,2.332-2.807,2.332h-3.876v1.657 h-1.421v-6.325H209.307z M210.689,37.251c0-0.675-0.396-1.021-1.382-1.021h-3.876v2.058h3.876c0.986,0,1.382-0.342,1.382-1.03 V37.251z"/>
    <path fill="#9EA2A6" d="M214.699,34.923v4.964h5.748v1.361h-7.203v-6.325H214.699z"/>
    <path fill="#9EA2A6" d="M221.536,41.248v-6.325h1.454v6.325H221.536z"/>
    <path fill="#9EA2A6" d="M231.918,36.69c-0.408-0.407-0.978-0.519-1.734-0.519h-2.534c-1.313,0-2.053,0.717-2.053,1.901v0.013 c0.008,1.206,0.748,1.91,2.053,1.91h2.534c0.785,0,1.333-0.131,1.734-0.522l0.844,1.035c-0.624,0.579-1.396,0.797-2.576,0.797 h-2.535c-2.2,0-3.476-1.217-3.476-3.216v-0.015c0-1.99,1.278-3.202,3.476-3.202h2.535c1.14,0,1.944,0.202,2.576,0.792L231.918,36.69 z"/>
    <path fill="#9EA2A6" d="M242.541,41.248h-1.575l-0.793-1.29h-4.822l-0.802,1.29h-1.569l4.06-6.325h1.441L242.541,41.248z M237.764,36.185l-1.684,2.584h3.354L237.764,36.185z"/>
    <path fill="#9EA2A6" d="M249.9,34.923v1.346h-3.234v4.979H245.2v-4.979h-3.239v-1.346H249.9z"/>
    <path fill="#9EA2A6" d="M250.988,41.248v-6.325h1.454v6.325H250.988z"/>
    <path fill="#9EA2A6" d="M259.855,34.869c2.203,0,3.483,1.216,3.483,3.204v0.013c0,1.998-1.282,3.217-3.483,3.217h-2.751 c-2.206,0-3.483-1.219-3.483-3.217v-0.013c0-1.99,1.277-3.204,3.483-3.204H259.855z M259.855,39.996c1.358,0,2.054-0.725,2.054-1.91 v-0.013c0-1.177-0.695-1.901-2.054-1.901h-2.751c-1.364,0-2.058,0.725-2.058,1.901v0.013c0,1.186,0.693,1.91,2.058,1.91H259.855z"/>
    <path fill="#9EA2A6" d="M271.552,34.923h1.441v6.325h-1.361l-5.684-4.366v4.366h-1.435v-6.325h1.354l5.684,4.356V34.923z"/>
    <path fill="#9EA2A6" d="M294.224,36.771c-0.257-0.477-0.667-0.68-1.411-0.68h-2.895c-0.658,0-1.02,0.211-1.02,0.6 c0,0.313,0.222,0.527,0.923,0.619l3.655,0.234c1.486,0.164,1.953,0.979,1.945,1.896c0,1.073-0.769,1.862-2.387,1.862h-2.951 c-1.476,0-2.393-0.504-2.735-1.39l1.272-0.702c0.245,0.646,0.709,0.87,1.472,0.87h2.961c0.687,0,1.021-0.225,1.021-0.657 c0-0.409-0.285-0.582-0.882-0.667l-3.747-0.273c-1.406-0.164-1.895-0.911-1.895-1.768c0-1.096,0.776-1.851,2.442-1.851h2.838 c1.303,0,2.142,0.422,2.5,1.143L294.224,36.771z"/>
    <path fill="#9EA2A6" d="M300.323,37.896l2.744-2.974h1.829l-3.84,4.133v2.192h-1.452v-2.192l-3.837-4.133h1.828L300.323,37.896z"/>
    <path fill="#9EA2A6" d="M312.032,36.771c-0.256-0.477-0.67-0.68-1.421-0.68h-2.885c-0.658,0-1.024,0.211-1.024,0.6 c0,0.313,0.22,0.527,0.925,0.619l3.65,0.234c1.492,0.164,1.962,0.979,1.953,1.896c0,1.073-0.768,1.862-2.388,1.862h-2.951 c-1.471,0-2.397-0.504-2.732-1.39l1.27-0.702c0.248,0.646,0.714,0.87,1.472,0.87h2.964c0.679,0,1.023-0.225,1.023-0.657 c0-0.409-0.285-0.582-0.887-0.667l-3.747-0.273c-1.403-0.164-1.895-0.911-1.895-1.768c0-1.096,0.779-1.851,2.442-1.851h2.841 c1.304,0,2.139,0.422,2.501,1.143L312.032,36.771z"/>
    <path fill="#9EA2A6" d="M321.812,34.923v1.346h-3.239v4.979h-1.459v-4.979h-3.234v-1.346H321.812z"/>
    <path fill="#9EA2A6" d="M330.292,34.923v1.249h-5.976v1.312h5.41v1.225h-5.41v1.279h5.976v1.261h-7.392v-6.327h7.392V34.923z"/>
    <path fill="#9EA2A6" d="M336.417,38.554l3.462-3.631h1.384v6.325h-1.446v-4.313l-3.053,3.217h-0.695l-3.047-3.217v4.313h-1.438 v-6.325h1.371L336.417,38.554z"/>
    <path fill="#9EA2A6" d="M173.389,37.407l7.2-0.005v1.362h-7.2V37.407z"/>
    <path fill="#9EA2A6" d="M276.583,37.407l7.201-0.005v1.362h-7.201V37.407z"/>
    <path fill="#169590" d="M128.62,10.235v4.874h-23.179v2.889h20.728v4.726h-20.728v2.83h23.179v4.87H99.749V10.235H128.62z"/>
    <path fill="#169590" d="M192.895,30.424h-6.388l-1.846-3.559h-12.396l-1.841,3.558h-6.388l11.6-20.189h5.662L192.895,30.424z M178.469,14.875l-3.817,7.384h7.632L178.469,14.875z"/>
    <path fill="#169590" d="M215.189,10.235c7.325,0,9.688,3.239,9.688,7.587v0.031c0,4.348-2.366,7.583-9.688,7.583h-13.477v4.991 h-5.692V10.238h19.169V10.235z M219.215,17.822c0-1.604-0.96-2.422-4.026-2.422h-13.477v4.845h13.477 c3.066,0,4.026-0.789,4.026-2.392V17.822z"/>
    <path fill="#169590" d="M247.661,10.235c7.325,0,9.685,3.239,9.685,7.587v0.031c0,4.348-2.361,7.583-9.685,7.583h-13.476v4.991 h-5.688V10.238h19.164V10.235z M251.687,17.822c0-1.604-0.959-2.422-4.025-2.422h-13.476v4.845h13.476 c3.066,0,4.025-0.789,4.025-2.392V17.822z"/>
    <path fill="#169590" d="M305.428,19.221l6.642-8.988h7.785l-11.479,13.42v6.769h-5.896v-6.769l-11.481-13.42h7.77L305.428,19.221z" />
    <path fill="#169590" d="M260.46,25.643h21.27c1.602,0,2.368-0.408,2.368-1.374c0-0.932-0.673-1.282-2.223-1.397l-14.717-0.701 c-5.104-0.353-6.712-3.063-6.712-5.953c0-3.354,2.074-6.157,7.735-6.157h21.138l-0.06,4.787h-21.368c-1.43,0-2.248,0.38-2.248,1.255 c0,0.787,0.524,1.224,2.277,1.371l14.544,0.613c5.309,0.35,6.856,3.239,6.825,6.155c0,3.294-2.043,6.183-7.582,6.183h-21.27 L260.46,25.643z"/>
    <path fill="#169590" d="M321.186,25.643h21.269c1.603,0,2.367-0.408,2.367-1.374c0-0.932-0.671-1.282-2.218-1.397l-14.72-0.701 c-5.105-0.353-6.712-3.063-6.712-5.953c0-3.354,2.075-6.157,7.733-6.157h21.135l-0.058,4.787h-21.369 c-1.43,0-2.244,0.38-2.244,1.255c0,0.787,0.521,1.224,2.272,1.371l14.544,0.613c5.311,0.35,6.856,3.239,6.825,6.155 c0,3.294-2.038,6.183-7.585,6.183h-21.271L321.186,25.643z"/>
    <path fill="#169590" d="M96.214,10.235v5.309H84.282v14.879h-5.918V15.544H66.433v-5.309H96.214z"/>
    <path fill="#169590" d="M160.474,30.424h-17.312c-7.241,0-11.476-3.702-11.476-10.151v-0.028c0-6.477,4.234-10.184,11.476-10.184 h17.312v5.167h-17.312c-3.71,0-5.786,1.722-5.786,5.018v0.028c0,3.269,2.105,4.989,5.786,4.989h17.312V30.424z"/>
  </symbol>

  <symbol id="brand-light" viewBox="0 0 351.531 50">
    <path fill="#0C171E" d="M6.736,30.486H0.968c1.729,7.912,7.222,14.418,14.508,17.547v-6.266 C11.284,39.287,8.111,35.268,6.736,30.486z"/>
    <path fill="#0C171E" d="M35.102,41.768v6.267c7.285-3.13,12.777-9.636,14.506-17.548H43.84 C42.467,35.27,39.293,39.287,35.102,41.768z"/>
    <path fill="#0C171E" d="M25.288,5.843c8.832,0,16.278,5.931,18.573,14.029h5.763C47.205,8.655,37.229,0.248,25.288,0.248 c-11.939,0-21.915,8.407-24.334,19.625h5.764C9.011,11.774,16.458,5.843,25.288,5.843z"/>
    <path fill="#169590" d="M50.086,22.926H27.539v27.014c1.549-0.14,3.055-0.418,4.508-0.826V27.432H50.08 c0.067-0.754,0.104-1.516,0.104-2.287C50.186,24.397,50.15,23.657,50.086,22.926z"/>
    <path fill="#169590" d="M0.491,22.926c-0.065,0.73-0.101,1.471-0.101,2.219c0,0.771,0.037,1.533,0.105,2.287H18.53v21.683 c1.453,0.407,2.96,0.688,4.506,0.825V22.926H0.491z"/>
    <path fill="#169590" d="M11.118,19.872h28.378c0.057-0.731,0.086-1.471,0.086-2.219c0-0.771-0.031-1.533-0.092-2.287H11.124 c-0.061,0.754-0.092,1.517-0.092,2.287C11.032,18.401,11.062,19.141,11.118,19.872z"/>
    <path fill="#9EA2A6" d="M83.135,34.923v1.346h-3.231v4.979H78.44v-4.979h-3.236v-1.346H83.135z"/>
    <path fill="#9EA2A6" d="M91.618,34.923v1.249h-5.982v1.312h5.414v1.225h-5.414v1.279h5.982v1.261h-7.395v-6.327h7.395V34.923z"/>
    <path fill="#9EA2A6" d="M100.287,36.69c-0.413-0.407-0.979-0.519-1.742-0.519h-2.534c-1.313,0-2.051,0.717-2.051,1.901v0.013 c0.004,1.206,0.746,1.91,2.051,1.91h2.534c0.786,0,1.335-0.131,1.742-0.522l0.84,1.035c-0.625,0.579-1.395,0.797-2.58,0.797h-2.533 c-2.202,0-3.481-1.217-3.481-3.216v-0.015c0-1.99,1.282-3.202,3.481-3.202h2.533c1.141,0,1.946,0.202,2.58,0.792L100.287,36.69z"/>
    <path fill="#9EA2A6" d="M109.241,37.445v-2.522h1.468v6.325h-1.468v-2.504h-5.608v2.504h-1.455v-6.325h1.455v2.522H109.241z"/>
    <path fill="#9EA2A6" d="M119.294,34.923h1.449v6.325h-1.365l-5.687-4.366v4.366h-1.436v-6.325h1.354l5.685,4.356V34.923 L119.294,34.923z"/>
    <path fill="#9EA2A6" d="M128.148,34.869c2.205,0,3.487,1.216,3.487,3.204v0.013c0,1.998-1.285,3.217-3.487,3.217h-2.755 c-2.204,0-3.484-1.219-3.484-3.217v-0.013c0-1.99,1.28-3.204,3.484-3.204H128.148z M128.148,39.996c1.365,0,2.055-0.725,2.055-1.91 v-0.013c0-1.177-0.689-1.901-2.055-1.901h-2.755c-1.361,0-2.057,0.725-2.057,1.901v0.013c0,1.186,0.695,1.91,2.057,1.91H128.148z"/>
    <path fill="#9EA2A6" d="M134.268,34.923v4.964h5.758v1.361h-7.214v-6.325H134.268z"/>
    <path fill="#9EA2A6" d="M146.894,34.869c2.204,0,3.484,1.216,3.484,3.204v0.013c0,1.998-1.282,3.217-3.484,3.217h-2.75 c-2.207,0-3.487-1.219-3.487-3.217v-0.013c0-1.99,1.28-3.204,3.487-3.204H146.894z M146.894,39.996c1.364,0,2.061-0.725,2.061-1.91 v-0.013c0-1.177-0.696-1.901-2.061-1.901h-2.75c-1.365,0-2.061,0.725-2.061,1.901v0.013c0,1.186,0.695,1.91,2.061,1.91H146.894z"/>
    <path fill="#9EA2A6" d="M159.177,36.69c-0.423-0.407-0.982-0.519-1.811-0.519h-2.653c-1.361,0-2.103,0.695-2.103,1.901v0.013 c0,1.193,0.741,1.91,2.066,1.91h2.531c0.861,0,1.541-0.177,1.741-0.725v-0.274h-2.241v-1.122h3.474v3.373h-0.858l-0.083-0.751 c-0.403,0.596-1.116,0.806-2.098,0.806h-2.518c-2.171,0-3.441-1.219-3.441-3.217v-0.013c0-1.99,1.28-3.204,3.529-3.204h2.653 c1.206,0,2.021,0.204,2.649,0.792L159.177,36.69z"/>
    <path fill="#9EA2A6" d="M165.176,37.896l2.742-2.974h1.833l-3.844,4.133v2.192h-1.451v-2.192l-3.839-4.133h1.827L165.176,37.896z"/>
    <path fill="#9EA2A6" d="M193.787,41.248h-1.571l-0.796-1.29h-4.822l-0.797,1.29h-1.573l4.056-6.325h1.446L193.787,41.248z M189.01,36.185l-1.683,2.584h3.353L189.01,36.185z"/>
    <path fill="#9EA2A6" d="M200.077,34.923c2.003,0,2.805,0.924,2.805,2.328v0.008c0,1.422-0.802,2.332-2.805,2.332h-3.879v1.657 h-1.413v-6.325H200.077z M201.452,37.251c0-0.675-0.392-1.021-1.375-1.021h-3.879v2.058h3.879c0.983,0,1.375-0.342,1.375-1.03 V37.251z"/>
    <path fill="#9EA2A6" d="M209.307,34.923c2.001,0,2.807,0.924,2.807,2.328v0.008c0,1.422-0.806,2.332-2.807,2.332h-3.876v1.657 h-1.421v-6.325H209.307z M210.689,37.251c0-0.675-0.396-1.021-1.382-1.021h-3.876v2.058h3.876c0.986,0,1.382-0.342,1.382-1.03 V37.251z"/>
    <path fill="#9EA2A6" d="M214.699,34.923v4.964h5.748v1.361h-7.203v-6.325H214.699z"/>
    <path fill="#9EA2A6" d="M221.536,41.248v-6.325h1.454v6.325H221.536z"/>
    <path fill="#9EA2A6" d="M231.918,36.69c-0.408-0.407-0.978-0.519-1.734-0.519h-2.534c-1.313,0-2.053,0.717-2.053,1.901v0.013 c0.008,1.206,0.748,1.91,2.053,1.91h2.534c0.785,0,1.333-0.131,1.734-0.522l0.844,1.035c-0.624,0.579-1.396,0.797-2.576,0.797 h-2.535c-2.2,0-3.476-1.217-3.476-3.216v-0.015c0-1.99,1.278-3.202,3.476-3.202h2.535c1.14,0,1.944,0.202,2.576,0.792L231.918,36.69 z"/>
    <path fill="#9EA2A6" d="M242.541,41.248h-1.575l-0.793-1.29h-4.822l-0.802,1.29h-1.569l4.06-6.325h1.441L242.541,41.248z M237.764,36.185l-1.684,2.584h3.354L237.764,36.185z"/>
    <path fill="#9EA2A6" d="M249.9,34.923v1.346h-3.234v4.979H245.2v-4.979h-3.239v-1.346H249.9z"/>
    <path fill="#9EA2A6" d="M250.988,41.248v-6.325h1.454v6.325H250.988z"/>
    <path fill="#9EA2A6" d="M259.855,34.869c2.203,0,3.483,1.216,3.483,3.204v0.013c0,1.998-1.282,3.217-3.483,3.217h-2.751 c-2.206,0-3.483-1.219-3.483-3.217v-0.013c0-1.99,1.277-3.204,3.483-3.204H259.855z M259.855,39.996c1.358,0,2.054-0.725,2.054-1.91 v-0.013c0-1.177-0.695-1.901-2.054-1.901h-2.751c-1.364,0-2.058,0.725-2.058,1.901v0.013c0,1.186,0.693,1.91,2.058,1.91H259.855z"/>
    <path fill="#9EA2A6" d="M271.552,34.923h1.441v6.325h-1.361l-5.684-4.366v4.366h-1.435v-6.325h1.354l5.684,4.356V34.923z"/>
    <path fill="#9EA2A6" d="M294.224,36.771c-0.257-0.477-0.667-0.68-1.411-0.68h-2.895c-0.658,0-1.02,0.211-1.02,0.6 c0,0.313,0.222,0.527,0.923,0.619l3.655,0.234c1.486,0.164,1.953,0.979,1.945,1.896c0,1.073-0.769,1.862-2.387,1.862h-2.951 c-1.476,0-2.393-0.504-2.735-1.39l1.272-0.702c0.245,0.646,0.709,0.87,1.472,0.87h2.961c0.687,0,1.021-0.225,1.021-0.657 c0-0.409-0.285-0.582-0.882-0.667l-3.747-0.273c-1.406-0.164-1.895-0.911-1.895-1.768c0-1.096,0.776-1.851,2.442-1.851h2.838 c1.303,0,2.142,0.422,2.5,1.143L294.224,36.771z"/>
    <path fill="#9EA2A6" d="M300.323,37.896l2.744-2.974h1.829l-3.84,4.133v2.192h-1.452v-2.192l-3.837-4.133h1.828L300.323,37.896z"/>
    <path fill="#9EA2A6" d="M312.032,36.771c-0.256-0.477-0.67-0.68-1.421-0.68h-2.885c-0.658,0-1.024,0.211-1.024,0.6 c0,0.313,0.22,0.527,0.925,0.619l3.65,0.234c1.492,0.164,1.962,0.979,1.953,1.896c0,1.073-0.768,1.862-2.388,1.862h-2.951 c-1.471,0-2.397-0.504-2.732-1.39l1.27-0.702c0.248,0.646,0.714,0.87,1.472,0.87h2.964c0.679,0,1.023-0.225,1.023-0.657 c0-0.409-0.285-0.582-0.887-0.667l-3.747-0.273c-1.403-0.164-1.895-0.911-1.895-1.768c0-1.096,0.779-1.851,2.442-1.851h2.841 c1.304,0,2.139,0.422,2.501,1.143L312.032,36.771z"/>
    <path fill="#9EA2A6" d="M321.812,34.923v1.346h-3.239v4.979h-1.459v-4.979h-3.234v-1.346H321.812z"/>
    <path fill="#9EA2A6" d="M330.292,34.923v1.249h-5.976v1.312h5.41v1.225h-5.41v1.279h5.976v1.261h-7.392v-6.327h7.392V34.923z"/>
    <path fill="#9EA2A6" d="M336.417,38.554l3.462-3.631h1.384v6.325h-1.446v-4.313l-3.053,3.217h-0.695l-3.047-3.217v4.313h-1.438 v-6.325h1.371L336.417,38.554z"/>
    <path fill="#9EA2A6" d="M173.389,37.407l7.2-0.005v1.362h-7.2V37.407z"/>
    <path fill="#9EA2A6" d="M276.583,37.407l7.201-0.005v1.362h-7.201V37.407z"/>
    <path fill="#0C171E" d="M128.62,10.235v4.874h-23.179v2.889h20.728v4.726h-20.728v2.83h23.179v4.87H99.749V10.235H128.62z"/>
    <path fill="#0C171E" d="M192.895,30.424h-6.388l-1.846-3.559h-12.396l-1.841,3.558h-6.388l11.6-20.189h5.662L192.895,30.424z M178.469,14.875l-3.817,7.384h7.632L178.469,14.875z"/>
    <path fill="#0C171E" d="M215.189,10.235c7.325,0,9.688,3.239,9.688,7.587v0.031c0,4.348-2.366,7.583-9.688,7.583h-13.477v4.991 h-5.692V10.238h19.169V10.235z M219.215,17.822c0-1.604-0.96-2.422-4.026-2.422h-13.477v4.845h13.477 c3.066,0,4.026-0.789,4.026-2.392V17.822z"/>
    <path fill="#0C171E" d="M247.661,10.235c7.325,0,9.685,3.239,9.685,7.587v0.031c0,4.348-2.361,7.583-9.685,7.583h-13.476v4.991 h-5.688V10.238h19.164V10.235z M251.687,17.822c0-1.604-0.959-2.422-4.025-2.422h-13.476v4.845h13.476 c3.066,0,4.025-0.789,4.025-2.392V17.822z"/>
    <path fill="#0C171E" d="M305.428,19.221l6.642-8.988h7.785l-11.479,13.42v6.769h-5.896v-6.769l-11.481-13.42h7.77L305.428,19.221z" />
    <path fill="#0C171E" d="M260.46,25.643h21.27c1.602,0,2.368-0.408,2.368-1.374c0-0.932-0.673-1.282-2.223-1.397l-14.717-0.701 c-5.104-0.353-6.712-3.063-6.712-5.953c0-3.354,2.074-6.157,7.735-6.157h21.138l-0.06,4.787h-21.368c-1.43,0-2.248,0.38-2.248,1.255 c0,0.787,0.524,1.224,2.277,1.371l14.544,0.613c5.309,0.35,6.856,3.239,6.825,6.155c0,3.294-2.043,6.183-7.582,6.183h-21.27 L260.46,25.643z"/>
    <path fill="#0C171E" d="M321.186,25.643h21.269c1.603,0,2.367-0.408,2.367-1.374c0-0.932-0.671-1.282-2.218-1.397l-14.72-0.701 c-5.105-0.353-6.712-3.063-6.712-5.953c0-3.354,2.075-6.157,7.733-6.157h21.135l-0.058,4.787h-21.369 c-1.43,0-2.244,0.38-2.244,1.255c0,0.787,0.521,1.224,2.272,1.371l14.544,0.613c5.311,0.35,6.856,3.239,6.825,6.155 c0,3.294-2.038,6.183-7.585,6.183h-21.271L321.186,25.643z"/>
    <path fill="#0C171E" d="M96.214,10.235v5.309H84.282v14.879h-5.918V15.544H66.433v-5.309H96.214z"/>
    <path fill="#0C171E" d="M160.474,30.424h-17.312c-7.241,0-11.476-3.702-11.476-10.151v-0.028c0-6.477,4.234-10.184,11.476-10.184 h17.312v5.167h-17.312c-3.71,0-5.786,1.722-5.786,5.018v0.028c0,3.269,2.105,4.989,5.786,4.989h17.312V30.424z"/>
  </symbol>

  <symbol id="brand-logo-dark" viewBox="0 0 50 50">
    <path fill="#169590" d="M6.479,30.383H0.721C2.447,38.282,7.93,44.776,15.204,47.9v-6.255C11.019,39.171,7.852,35.157,6.479,30.383z"/>
    <path fill="#169590" d="M34.796,41.646V47.9c7.273-3.124,12.757-9.618,14.483-17.518h-5.759 C42.149,35.157,38.981,39.171,34.796,41.646z"/>
    <path fill="#169590" d="M25,5.782c8.817,0,16.25,5.921,18.542,14.005h5.753C46.88,8.589,36.92,0.195,24.999,0.195 c-11.919,0-21.878,8.394-24.293,19.592h5.754C8.75,11.704,16.184,5.782,25,5.782z"/>
    <path fill="#FFFFFF" d="M49.756,22.836H27.25v26.969c1.544-0.14,3.047-0.417,4.497-0.825V27.334h18.002 c0.068-0.752,0.105-1.513,0.105-2.283C49.854,24.305,49.819,23.566,49.756,22.836z"/>
    <path fill="#FFFFFF" d="M0.245,22.836c-0.065,0.73-0.099,1.469-0.099,2.215c0,0.77,0.037,1.531,0.105,2.283h18.002v21.646 c1.45,0.408,2.954,0.686,4.498,0.825V22.836H0.245z"/>
    <path fill="#FFFFFF" d="M10.854,19.787h28.328c0.057-0.73,0.087-1.469,0.087-2.215c0-0.77-0.032-1.531-0.092-2.284H10.859 c-0.06,0.752-0.091,1.514-0.091,2.284C10.768,18.318,10.798,19.057,10.854,19.787z"/>
  </symbol>

  <symbol id="brand-logo-light" viewBox="0 0 50 50">
    <path fill="#0C171E" d="M6.353,30.303H0.577c1.732,7.924,7.231,14.438,14.526,17.57V41.6C10.906,39.116,7.729,35.092,6.353,30.303z"/>
    <path fill="#0C171E" d="M34.752,41.601v6.272c7.296-3.134,12.794-9.646,14.526-17.57h-5.776 C42.126,35.092,38.949,39.116,34.752,41.601z"/>
    <path fill="#0C171E" d="M24.927,5.631c8.844,0,16.3,5.938,18.596,14.046h5.771C46.87,8.445,36.882,0.028,24.927,0.028 c-11.954,0-21.942,8.417-24.364,19.649h5.771C8.63,11.569,16.086,5.631,24.927,5.631z"/>
    <path fill="#169590" d="M49.756,22.734H27.183v27.048c1.55-0.139,3.058-0.418,4.513-0.828V27.246h18.054 c0.069-0.755,0.105-1.518,0.105-2.29C49.854,24.208,49.82,23.467,49.756,22.734z"/>
    <path fill="#169590" d="M0.1,22.734C0.035,23.467,0,24.208,0,24.956c0,0.772,0.037,1.535,0.105,2.29h18.055v21.708 c1.455,0.41,2.963,0.689,4.511,0.828V22.734H0.1z"/>
    <path fill="#169590" d="M10.74,19.677h28.413c0.056-0.732,0.086-1.473,0.086-2.222c0-0.772-0.032-1.536-0.092-2.291H10.746 c-0.06,0.755-0.092,1.519-0.092,2.291C10.654,18.204,10.684,18.945,10.74,19.677z"/>
  </symbol>

</svg>